# xmcd
#
# Track frame offsets: 
#        150
#        19153
#        34296
#        50871
#        67133
#        83928
#        103196
#        116906
#        134966
#        149491
#        163153
#        179558
#        195724
#        211452
#        228432
#
# Disc length: 3242 seconds
#
# Revision: 0
# Processed by: cddbd v1.5.2PL0 Copyright (c) Steve Scherf et al.
# Submitted via: ExactAudioCopy v0.99pb5
#
DISCID=fa0ca80f
DTITLE=Alabama - The Music Of Alabama [Disc 2]
DYEAR=2009
DGENRE=Country
TTITLE0=There's No Way
TTITLE1=Forty Hour Week (For A Livin')
TTITLE2=Can't Keep A Good Man Down
TTITLE3=She And I
TTITLE4=Touch Me When We're Dancing
TTITLE5="You've Got" The Touch
TTITLE6=Face To Face (duet with K. T. Oslin)
TTITLE7=Fallin' Again
TTITLE8=Song Of The South
TTITLE9=High Cotton
TTITLE10=Jukebox In My Mind
TTITLE11=Forever's As Far As I'll Go
TTITLE12=Down Home
TTITLE13=Then Again
TTITLE14=Born Country
EXTD=
EXTT0=
EXTT1=
EXTT2=
EXTT3=
EXTT4=
EXTT5=
EXTT6=
EXTT7=
EXTT8=
EXTT9=
EXTT10=
EXTT11=
EXTT12=
EXTT13=
EXTT14=
PLAYORDER=
